<?xml version="1.0" encoding="UTF-8"?>
<svg xmlns="http://www.w3.org/2000/svg" xmlns:xlink="http://www.w3.org/1999/xlink" width="98px" height="96px" viewBox="0 0 98 96" version="1.1">
<g id="surface1">
<path style=" stroke:none;fill-rule:evenodd;fill:rgb(0%,49.411765%,73.333333%);fill-opacity:1;" d="M 49 96 C 76.0625 96 98 74.507812 98 48 C 98 21.492188 76.0625 0 49 0 C 21.9375 0 0 21.492188 0 48 C 0 74.507812 21.9375 96 49 96 Z M 49 96 "/>
<path style=" stroke:none;fill-rule:evenodd;fill:rgb(100%,100%,100%);fill-opacity:1;" d="M 80.304688 76 L 68 76 L 68 55.46875 C 68 49.839844 65.816406 46.695312 61.269531 46.695312 C 56.320312 46.695312 53.734375 49.96875 53.734375 55.46875 L 53.734375 76 L 41.875 76 L 41.875 36.890625 L 53.734375 36.890625 L 53.734375 42.15625 C 53.734375 42.15625 57.300781 35.695312 65.773438 35.695312 C 74.242188 35.695312 80.304688 40.761719 80.304688 51.238281 Z M 27.730469 31.769531 C 23.691406 31.769531 20.417969 28.535156 20.417969 24.550781 C 20.417969 20.566406 23.691406 17.332031 27.730469 17.332031 C 31.769531 17.332031 35.039062 20.566406 35.039062 24.550781 C 35.039062 28.535156 31.769531 31.769531 27.730469 31.769531 Z M 21.605469 76 L 33.972656 76 L 33.972656 36.890625 L 21.605469 36.890625 Z M 21.605469 76 "/>
</g>
</svg>
